HIERARCHY
ROOT mixamorig:Hips
{
  OFFSET 0.000000 0.000000 0.000000
  CHANNELS 6 Xposition Yposition Zposition Xrotation Yrotation Zrotation
  JOINT mixamorig:Spine
  {
    OFFSET -2.721785 23.846754 2.011942
    CHANNELS 3 Xrotation Yrotation Zrotation
    JOINT mixamorig:Spine2
    {
      OFFSET -2.721785 23.846754 2.011942
      CHANNELS 3 Xrotation Yrotation Zrotation
      JOINT mixamorig:Neck
      {
        OFFSET 0.000000 3.794168 0.000000
        CHANNELS 3 Xrotation Yrotation Zrotation
        JOINT mixamorig:Head
        {
          OFFSET 0.000000 3.616294 0.000000
          CHANNELS 3 Xrotation Yrotation Zrotation
          End Site
          {
            OFFSET 0.000000 1.084888 0.000000
          }
        }
      }
      JOINT mixamorig:LeftShoulder
      {
        OFFSET 14.869504 1.490289 -6.285599
        CHANNELS 3 Xrotation Yrotation Zrotation
        JOINT mixamorig:LeftArm
        {
          OFFSET 8.240244 -5.869636 -13.075080
          CHANNELS 3 Xrotation Yrotation Zrotation
          JOINT mixamorig:LeftForeArm
          {
            OFFSET -11.957707 3.691441 -10.565373
            CHANNELS 3 Xrotation Yrotation Zrotation
            JOINT mixamorig:LeftHand
            {
              OFFSET -4.140924 1.948982 -1.245566
              CHANNELS 3 Xrotation Yrotation Zrotation
              End Site
              {
                OFFSET -1.242277 0.584695 -0.373670
              }
            }
          }
        }
      }
      JOINT mixamorig:RightShoulder
      {
        OFFSET -14.869504 1.490289 6.285599
        CHANNELS 3 Xrotation Yrotation Zrotation
        JOINT mixamorig:RightArm
        {
          OFFSET -1.922670 -23.388141 -12.917531
          CHANNELS 3 Xrotation Yrotation Zrotation
          JOINT mixamorig:RightForeArm
          {
            OFFSET 2.003331 14.137387 -21.097828
            CHANNELS 3 Xrotation Yrotation Zrotation
            JOINT mixamorig:RightHand
            {
              OFFSET 3.010116 6.425109 -4.530513
              CHANNELS 3 Xrotation Yrotation Zrotation
              End Site
              {
                OFFSET 0.903035 1.927533 -1.359154
              }
            }
          }
        }
      }
    }
  }
  JOINT mixamorig:LeftUpLeg
  {
    OFFSET 9.506946 0.418498 -0.262008
    CHANNELS 3 Xrotation Yrotation Zrotation
    JOINT mixamorig:LeftLeg
    {
      OFFSET 11.960976 -40.825369 -9.870072
      CHANNELS 3 Xrotation Yrotation Zrotation
      JOINT mixamorig:LeftFoot
      {
        OFFSET 15.618218 -37.517872 7.388456
        CHANNELS 3 Xrotation Yrotation Zrotation
        JOINT mixamorig:LeftToeBase
        {
          OFFSET -0.361343 -5.015856 -7.224799
          CHANNELS 3 Xrotation Yrotation Zrotation
          End Site
          {
            OFFSET -0.108403 -1.504757 -2.167440
          }
        }
      }
    }
  }
  JOINT mixamorig:RightUpLeg
  {
    OFFSET -9.506946 -0.418498 0.262008
    CHANNELS 3 Xrotation Yrotation Zrotation
    JOINT mixamorig:RightLeg
    {
      OFFSET -10.786019 -28.000506 0.300963
      CHANNELS 3 Xrotation Yrotation Zrotation
      JOINT mixamorig:RightFoot
      {
        OFFSET -3.934634 -38.949940 21.073509
        CHANNELS 3 Xrotation Yrotation Zrotation
        JOINT mixamorig:RightToeBase
        {
          OFFSET -7.856978 -3.494331 -5.244490
          CHANNELS 3 Xrotation Yrotation Zrotation
          End Site
          {
            OFFSET -2.357093 -1.048299 -1.573347
          }
        }
      }
    }
  }
}
MOTION
Frames: 15
Frame Time: 0.083333
0.054381 0.247942 0.125641 -28.934377 -4.467469 -6.688693 0.000000 0.000000 0.000000 3.389773 11.565398 9.417369 12.034013 -6.249011 -6.545997 12.590760 -6.507449 -8.073275 -11.306111 -9.153958 -27.982088 40.200333 -2.752597 8.073034 -0.051966 13.076851 -14.488753 0.000000 0.000000 0.000000 28.608307 -8.516314 2.037678 -11.322734 -4.511939 -5.384451 1.954889 0.892859 -6.146946 0.000000 0.000000 0.000000 24.530163 6.399150 0.861719 6.124146 0.693707 -2.603684 -0.150703 -8.981801 12.021669 0.000000 0.000000 0.000000 0.000000 0.000000 0.000000 0.000000 0.000000 0.000000 33.934491 -13.716436 8.623970 0.000000 0.000000 0.000000
0.054524 0.248433 0.124022 -29.175275 -4.499346 -6.634725 0.000000 0.000000 -0.000000 3.402559 11.486591 9.340067 8.734762 -6.035315 -6.925625 9.427662 -6.461220 -7.930139 -11.014441 -8.866788 -28.043597 40.547521 -2.860520 7.898315 -0.393611 13.261091 -14.197254 0.000000 0.000000 0.000000 28.935787 -8.459347 2.103774 -11.191497 -4.589332 -5.527316 1.806492 0.958360 -6.094080 0.000000 0.000000 0.000000 24.749934 6.411375 0.761791 6.187157 0.718968 -2.615257 -0.185631 -9.126004 12.132119 0.000000 0.000000 0.000000 0.000000 0.000000 0.000000 0.000000 0.000000 0.000000 34.038351 -13.477229 8.562228 0.000000 0.000000 0.000000
0.055265 0.247197 0.122539 -29.392949 -4.498528 -6.440534 0.000000 0.000000 -0.000000 3.478980 10.934720 8.954595 31.618078 -4.416984 -4.305901 31.467097 -3.236486 -7.669931 -10.508109 -7.289214 -28.369572 43.787000 -2.541548 4.647281 -3.372240 13.865428 -12.974100 0.000000 0.000000 0.000000 29.237261 -8.189187 2.524652 -9.666715 -5.252959 -6.603498 1.328087 1.633049 -5.254469 0.000000 0.000000 0.000000 24.964524 6.295506 0.612698 6.283063 0.794888 -2.568679 -0.168409 -8.227223 11.326482 0.000000 0.000000 0.000000 0.000000 0.000000 0.000000 0.000000 0.000000 0.000000 34.509289 -13.849398 8.017939 0.000000 0.000000 0.000000
0.056357 0.244538 0.118962 -28.088222 -4.243420 -6.339222 0.000000 0.000000 -0.000000 3.679567 9.040587 8.069911 15.158544 -0.844803 -5.527560 15.092507 -0.518933 -7.295336 -10.769838 -3.751896 -28.089092 48.667032 -1.959622 -0.652496 -8.837893 13.800974 -9.094862 0.000000 0.000000 0.000000 28.624435 -7.057843 3.400405 -7.278323 -6.366129 -8.755845 0.322859 2.941035 -3.528261 0.000000 0.000000 0.000000 23.618339 5.828891 0.817423 6.339182 0.723323 -3.155660 -0.478713 -8.746825 12.326554 0.000000 0.000000 0.000000 0.000000 0.000000 0.000000 0.000000 0.000000 0.000000 32.696714 -11.922717 7.734207 0.000000 0.000000 0.000000
0.057383 0.243469 0.108629 -25.382676 -3.846276 -6.762136 0.000000 0.000000 0.000000 3.828360 6.976523 7.456807 -8.534235 2.405442 -7.251301 -8.723177 1.217519 -7.888851 -11.764174 -0.711950 -26.511460 51.047428 -0.745846 -5.038466 -13.153969 12.599300 -5.900144 0.000000 0.000000 0.000000 26.863911 -5.985534 4.512307 -5.723160 -6.024254 -10.419135 0.378213 3.401565 -2.023740 0.000000 0.000000 0.000000 20.816485 5.369394 1.803611 5.908814 0.236475 -4.605196 -1.055709 -9.874636 14.980616 0.000000 0.000000 0.000000 0.000000 0.000000 0.000000 0.000000 0.000000 0.000000 30.022137 -9.596613 7.524336 0.000000 0.000000 0.000000
0.058353 0.246864 0.091203 -32.603726 -5.104481 -6.572238 0.000000 0.000000 0.000000 3.705425 7.717253 7.355867 10.733699 2.743862 -6.257773 10.434155 3.469481 -6.715839 -3.296323 1.233747 -26.338058 51.345577 -2.229632 -4.323074 -14.614568 16.286347 -6.552877 0.000000 0.000000 0.000000 35.509199 -6.877037 6.245990 -6.067167 -2.454489 -10.523983 0.656427 1.139656 -3.250486 0.000000 0.000000 0.000000 27.335602 6.761663 0.271156 6.529288 0.217258 -5.795094 -1.701477 -11.210101 17.509537 0.000000 0.000000 0.000000 0.000000 0.000000 0.000000 0.000000 0.000000 0.000000 37.595221 -8.355089 4.558512 0.000000 0.000000 0.000000
0.059814 0.251447 0.075603 -37.104636 -5.993406 -6.890209 0.000000 0.000000 0.000000 3.549862 8.390704 7.696705 38.739997 1.515058 -4.760216 38.482656 4.817010 -4.844568 0.167469 1.196880 -27.109845 54.093186 -2.573519 -6.751572 -16.518718 16.455161 -6.793085 0.000000 0.000000 0.000000 39.999007 -7.433728 7.345283 -6.732258 0.515798 -10.040311 0.657022 -0.335195 -4.295879 0.000000 0.000000 0.000000 31.330971 7.831676 -0.631116 7.661191 0.658574 -6.215245 -1.058807 -12.183441 18.449626 0.000000 0.000000 0.000000 0.000000 0.000000 0.000000 0.000000 0.000000 0.000000 42.806359 -7.388351 2.101179 0.000000 0.000000 0.000000
0.061250 0.254366 0.067856 -38.305836 -6.393358 -7.578614 0.000000 0.000000 0.000000 3.419208 8.316838 8.086393 39.381817 1.615837 -4.491472 39.126649 4.823521 -4.471310 0.038371 1.464168 -27.897035 57.546961 -2.599657 -10.063878 -18.980871 15.285308 -5.445707 0.000000 0.000000 0.000000 40.750078 -6.680425 7.104407 -6.593020 0.600320 -9.730788 0.086622 -0.256125 -4.289788 0.000000 0.000000 0.000000 32.135114 8.508855 -0.563851 8.439804 1.011357 -6.258791 -0.823070 -12.072171 18.269319 0.000000 0.000000 0.000000 0.000000 0.000000 0.000000 0.000000 0.000000 0.000000 44.545943 -7.009458 1.431737 0.000000 0.000000 0.000000
0.062510 0.253943 0.067505 -38.698906 -6.524690 -7.790453 0.000000 0.000000 0.000000 3.375224 8.263764 8.174791 39.589604 2.006748 -4.332717 39.288034 5.216455 -4.030372 -0.492526 0.704428 -27.997006 59.612450 -3.471295 -13.288985 -20.638293 14.283414 -4.057644 0.000000 0.000000 0.000000 40.608608 -6.033296 6.542167 -6.492274 -0.851733 -9.941588 -0.148634 0.560494 -4.058387 0.000000 0.000000 0.000000 32.192071 8.660913 -0.593717 8.946707 1.272946 -6.005691 -0.812953 -11.868513 17.810157 0.000000 0.000000 0.000000 0.000000 0.000000 0.000000 0.000000 0.000000 0.000000 44.628026 -6.623293 1.792392 0.000000 0.000000 0.000000
0.063807 0.250356 0.074416 -37.864703 -6.366177 -7.796625 -0.000000 0.000000 0.000000 3.375981 8.443498 8.366275 39.144743 2.188885 -4.336026 38.812750 5.409027 -3.902946 -2.037788 -0.536471 -28.189658 60.205017 -5.053567 -14.434459 -20.545357 14.690656 -5.248552 0.000000 0.000000 0.000000 38.889928 -6.089512 6.261015 -5.783098 -1.962334 -10.230947 -0.405672 1.260533 -3.635115 0.000000 0.000000 0.000000 31.368284 8.467992 -0.273092 8.619411 1.129099 -5.867769 -0.044418 -11.776579 17.594010 0.000000 0.000000 0.000000 0.000000 0.000000 0.000000 0.000000 0.000000 0.000000 43.192714 -6.218382 2.788774 0.000000 0.000000 0.000000
0.064991 0.245317 0.084447 -36.224200 -5.963223 -7.418201 -0.000000 0.000000 0.000000 3.389849 9.427956 8.805122 38.255561 1.147741 -4.193597 38.062985 3.993231 -4.368492 -3.848745 -2.490326 -28.687536 58.469821 -4.819476 -12.936930 -18.674419 14.859035 -6.230076 0.000000 0.000000 0.000000 36.039854 -7.820777 6.846937 -4.287444 -2.003150 -10.884995 -0.390762 1.668822 -2.830048 0.000000 0.000000 0.000000 30.026087 7.866329 0.149471 7.614562 0.706143 -5.660598 0.456186 -11.198320 16.978802 0.000000 0.000000 0.000000 0.000000 0.000000 0.000000 0.000000 0.000000 0.000000 40.765838 -6.506242 4.219323 0.000000 0.000000 0.000000
0.065571 0.242770 0.094767 -34.142501 -5.251798 -5.977476 0.000000 0.000000 0.000000 3.493607 10.889840 8.570196 37.204326 -0.315207 -3.868765 37.126070 1.963379 -4.835182 -5.268481 -5.287411 -28.827738 53.937304 -2.954498 -9.151429 -14.845238 14.714603 -8.302741 0.000000 0.000000 0.000000 33.052116 -10.898876 8.117901 -3.331060 -0.448193 -11.346815 0.310259 1.329131 -2.282892 0.000000 0.000000 0.000000 28.936555 6.606406 0.057895 6.365829 0.412363 -5.154306 -0.579313 -9.456573 14.787520 0.000000 0.000000 0.000000 0.000000 0.000000 0.000000 0.000000 0.000000 0.000000 36.685910 -7.055997 6.465102 0.000000 0.000000 0.000000
0.064975 0.243175 0.100324 -32.201598 -4.439650 -3.507975 0.000000 0.000000 0.000000 3.572496 12.771312 7.344495 36.510568 -2.689272 -3.960809 36.436098 -0.841025 -6.286295 -3.563374 -7.701761 -27.182345 44.123096 1.586243 -0.645133 -7.403782 12.563650 -11.248590 0.000000 0.000000 0.000000 31.548051 -14.080097 8.478279 -3.400150 1.439716 -10.216779 1.269375 0.392502 -1.848627 0.000000 0.000000 0.000000 28.642522 5.059712 -1.215978 4.871213 0.370729 -3.212860 -2.076972 -4.985447 8.994278 0.000000 0.000000 0.000000 0.000000 0.000000 0.000000 0.000000 0.000000 0.000000 34.045246 -9.138577 5.973836 0.000000 0.000000 0.000000
0.064061 0.243661 0.120910 -25.560215 -3.196715 -1.606961 0.000000 0.000000 0.000000 3.277905 15.920958 6.096100 34.040942 -6.535399 -4.613474 33.774769 -5.032448 -8.930199 -3.382677 -12.798278 -22.264445 32.973700 4.768410 1.810570 -3.951794 8.650333 -8.205784 0.000000 0.000000 0.000000 25.570157 -17.167998 6.301858 -3.677063 0.689154 -7.307874 2.318367 -0.398849 -1.928425 0.000000 0.000000 0.000000 23.910608 3.481293 -1.557980 3.133247 0.459141 -0.582113 -2.071386 -1.308788 2.824416 0.000000 0.000000 0.000000 0.000000 0.000000 0.000000 0.000000 0.000000 0.000000 26.432268 -7.684202 4.971772 0.000000 0.000000 0.000000
0.063472 0.238171 0.153793 -14.118255 -1.640965 -0.373264 0.000000 0.000000 -0.000000 2.778418 18.835525 2.897067 29.964343 -10.546275 -5.254527 29.259992 -9.223456 -10.962890 -1.205244 -16.127518 -11.269292 15.260239 2.426159 1.440039 0.083201 6.118361 -3.973824 0.000000 0.000000 0.000000 13.470592 -19.876146 3.933317 -2.352492 0.458700 -4.475068 1.751783 -0.420445 -1.351975 0.000000 0.000000 0.000000 14.424222 1.848588 -0.904793 0.739644 0.222157 0.306378 -0.469325 -1.793648 1.207926 0.000000 0.000000 0.000000 0.400931 -0.080223 -0.399127 -0.430273 0.130773 0.597189 14.245215 -3.291177 2.121183 0.000000 0.000000 0.000000
